<svg xmlns="http://www.w3.org/2000/svg" width="11.325" height="13.938" viewBox="0 0 11.325 13.938">
  <path id="Icon_metro-bin" data-name="Icon metro-bin" d="M5.37,6.284V15a.874.874,0,0,0,.871.871h7.84A.874.874,0,0,0,14.953,15V6.284Zm2.613,7.84H7.112v-6.1h.871Zm1.742,0H8.854v-6.1h.871Zm1.742,0H10.6v-6.1h.871Zm1.742,0h-.871v-6.1h.871ZM15.17,3.67H12.339V2.581a.655.655,0,0,0-.653-.653H8.637a.655.655,0,0,0-.653.653V3.67H5.152a.655.655,0,0,0-.653.653V5.413H15.824V4.324a.655.655,0,0,0-.653-.653Zm-3.7,0H8.854V2.81h2.613v.86Z" transform="translate(-4.499 -1.928)" fill="#fff"/>
</svg>
